<svg xmlns="http://www.w3.org/2000/svg" xmlns:xlink="http://www.w3.org/1999/xlink" width="24" height="24" viewBox="0 0 24 24">
    <defs>
        <path id="a" d="M3 0h8a3 3 0 0 1 3 3v5.04a3 3 0 0 1-3 3H5L.781 13.912A.5.5 0 0 1 0 13.5V3a3 3 0 0 1 3-3zm.75 3h6.5a.75.75 0 1 1 0 1.5h-6.5a.75.75 0 0 1 0-1.5zm0 3.5h3.5a.75.75 0 0 1 0 1.5h-3.5a.75.75 0 0 1 0-1.5z"/>
    </defs>
    <g fill="none" fill-rule="evenodd" transform="translate(5 6)">
        <mask id="comment" fill="#fff">
            <use xlink:href="#a"/>
        </mask>
        <use fill="#FFF" xlink:href="#a"/>
        <g fill="#082451" mask="url(#comment)">
            <path d="M-5-6h24v24H-5z"/>
        </g>
    </g>
</svg>
