<?xml version="1.0" encoding="utf-8"?>
<!-- Generator: Adobe Illustrator 22.0.1, SVG Export Plug-In . SVG Version: 6.00 Build 0)  -->
<svg version="1.1" id="Слой_1" xmlns="http://www.w3.org/2000/svg" xmlns:xlink="http://www.w3.org/1999/xlink" x="0px" y="0px"
	 viewBox="0 0 24 24" style="enable-background:new 0 0 24 24;" xml:space="preserve">
<style type="text/css">
	.st0{fill:#FFFFFF;fill-opacity:0;}
	.st1{fill:#6A6A6A;}
</style>
<title>cosy</title>
<desc>Created with Sketch.</desc>
<g id="icons" transform="translate(-312.000000, -483.000000)">
	<g id="cosy" transform="translate(308.000000, 479.000000)">
		<rect id="Mask" x="4" y="4" class="st0" width="24" height="24"/>
		<path id="Clip-2" class="st1" d="M21.5,14c-0.6,0-1,0.4-1,1v2.5c0,0.3-0.2,0.5-0.5,0.5h-7.5c-0.3,0-0.5-0.2-0.5-0.5V15
			c0-0.6-0.4-1-1-1H9.5c-0.6,0-1,0.4-1,1v3v2.5c0,0.6,0.4,1,1,1H12h8.5H23c0.6,0,1-0.4,1-1V15c0-0.6-0.4-1-1-1H21.5z"/>
		<path id="Clip-5" class="st1" d="M11.5,8.5c-0.6,0-1,0.4-1,1v3c0,0.3,0.2,0.5,0.5,0.5h1c0.6,0,1,0.4,1,1v0v2.5
			c0,0.3,0.2,0.5,0.5,0.5H19c0.3,0,0.5-0.2,0.5-0.5V14c0-0.6,0.4-1,1-1h1c0.3,0,0.5-0.2,0.5-0.5v-3c0-0.6-0.4-1-1-1H11.5z"/>
		<path id="Clip-8" class="st1" d="M9.5,22.5c0,0.6,0.4,1,1,1H11c0.6,0,1-0.4,1-1H9.5z"/>
		<g id="Clip-11">
			<path id="path-1_1_" class="st1" d="M20.5,22.5c0,0.6,0.4,1,1,1H22c0.6,0,1-0.4,1-1H20.5z"/>
		</g>
	</g>
</g>
</svg>
