<?xml version="1.0" encoding="utf-8"?>
<!-- Generator: Adobe Illustrator 18.1.1, SVG Export Plug-In . SVG Version: 6.00 Build 0)  -->
<svg version="1.1" id="Слой_1" xmlns="http://www.w3.org/2000/svg" xmlns:xlink="http://www.w3.org/1999/xlink" x="0px" y="0px"
	 viewBox="43.5 0 210.6 210.6" enable-background="new 43.5 0 210.6 210.6" xml:space="preserve">
<path fill="#718090" d="M197,58.7c0-0.8-0.8-1.5-1.5-1.5c-6.4,0.8-31.2,4.5-48.5,21.8c-1.1,1.1-2.6,2.6-4.1,4.5l-21.4,3.8
	c-0.4,0-0.4,0.4-0.8,0.4l-19.2,19.6c-1.1,0.8-0.4,2.6,1.1,2.6l22.2-1.5c-0.8,1.1-1.5,2.6-2.6,3.8c-0.8,1.1-0.8,3,0.4,3.8l15.8,16.2
	c1.1,1.1,2.6,1.1,3.8,0.4c1.5-0.8,2.6-1.9,3.8-2.6l-0.8,22.2c0,1.5,1.5,1.9,2.6,1.1l18.8-19.2c0.4-0.4,0.8-1.1,0.8-1.9l3.8-21.1
	c1.5-1.5,3-2.6,4.1-4.1C192.4,89.9,196.2,65.1,197,58.7 M165.7,88.4c-2.6-2.6-2.6-6.8,0-9.4c2.6-2.6,6.8-2.6,9.4,0
	c2.6,2.6,2.6,6.8,0,9.4S168.4,91,165.7,88.4 M128.9,139.5c2.3-2.3,6-2.3,8.3,0c2.3,2.3,2.3,6,0,8.3l-3,3c-2.3,2.3-6,2.3-8.3,0
	c-2.3-2.3-2.3-6,0-8.3L128.9,139.5z M117.2,127.9c2.3-2.3,6-2.3,8.3,0c2.3,2.3,2.3,6,0,8.3l-12,12c-2.3,2.3-6,2.3-8.3,0
	s-2.3-6,0-8.3L117.2,127.9z M105.2,116.2c2.3-2.3,6-2.3,8.3,0s2.3,6,0,8.3l-3,3c-2.3,2.3-6,2.3-8.3,0c-2.3-2.3-2.3-6,0-8.3
	L105.2,116.2z"/>
</svg>
