<svg xmlns="http://www.w3.org/2000/svg" xmlns:xlink="http://www.w3.org/1999/xlink" width="24" height="24" viewBox="0 0 24 24">
    <defs>
        <path id="era" d="M.746 9.388a.94.94 0 1 1 1.331 1.33l-.47.472A.942.942 0 0 1 .274 9.859l.471-.471zM2.63 11.27a.94.94 0 1 1 1.33 1.331l-1.94 1.94a.94.94 0 1 1-1.33-1.33l1.94-1.94zm1.882 1.883a.94.94 0 1 1 1.331 1.33l-.471.472a.942.942 0 0 1-1.331-1.331l.471-.471zM10.409 5a1.064 1.064 0 0 1 0-1.498 1.052 1.052 0 0 1 1.491 0c.411.414.41 1.084 0 1.498a1.05 1.05 0 0 1-1.49 0M15.384.227a.201.201 0 0 0-.224-.226c-1.023.113-4.993.72-7.726 3.466a14.37 14.37 0 0 0-.636.692l-3.415.606a.215.215 0 0 0-.122.063L.175 7.93a.231.231 0 0 0 .177.394L3.9 8.086c-.135.203-.269.404-.408.618a.5.5 0 0 0 .065.625L6.1 11.883c.168.168.43.195.63.065.21-.138.408-.272.61-.406l-.238 3.564a.23.23 0 0 0 .392.178l3.025-3.04a.502.502 0 0 0 .141-.27l.587-3.345c.253-.223.488-.438.69-.639 2.732-2.747 3.336-6.735 3.448-7.763"/>
    </defs>
    <g fill="none" fill-rule="evenodd" transform="translate(4 5)">
        <mask id="bdf" fill="#fff">
            <use xlink:href="#era"/>
        </mask>
        <use fill="#E57676" xlink:href="#era"/>
        <g fill="#6A6A6A" mask="url(#bdf)">
            <path d="M-4-5h24v24H-4z"/>
        </g>
    </g>
</svg>
