<?xml version="1.0" encoding="utf-8"?>
<!-- Generator: Adobe Illustrator 18.1.1, SVG Export Plug-In . SVG Version: 6.00 Build 0)  -->
<svg version="1.1" id="Слой_1" xmlns="http://www.w3.org/2000/svg" xmlns:xlink="http://www.w3.org/1999/xlink" x="0px" y="0px"
	 viewBox="43.5 0 210.6 210.6" enable-background="new 43.5 0 210.6 210.6" xml:space="preserve">
<path fill="#718090" d="M153,133.5l1.5,3c1.1,2.3,3,4.1,5.3,5.6l1.9,1.1c0.4,0.4,0.8,0.8,0.4,1.5l-0.4,0.4l-1.9,1.1
	c-2.3,1.5-4.1,3.4-5.3,5.6l-1.5,3c-0.4,0.4-0.8,0.8-1.5,0.4c-0.4,0-0.4-0.4-0.4-0.4l-1.5-3c-1.1-2.3-3-4.1-5.3-5.6l-1.9-1.1
	c-0.4-0.4-0.8-0.8-0.4-1.5l0.4-0.4l1.9-1.1c2.3-1.5,4.1-3.4,5.3-5.6l1.5-3c0.4-0.4,0.8-0.8,1.5-0.4L153,133.5z M180.8,100.8l2.6,4.9
	c1.9,3.8,4.9,6.8,8.3,9l3.4,2.3c0.8,0.4,0.8,1.1,0.4,1.9c0,0.4-0.4,0.4-0.4,0.4l-3.4,2.3c-3.8,2.3-6.4,5.3-8.3,9l-2.6,4.9
	c-0.4,0.8-1.1,1.1-1.9,0.8c-0.4,0-0.4-0.4-0.8-0.8l-2.6-4.9c-1.9-3.8-4.9-6.8-8.3-9l-3.4-2.3c-0.8-0.4-0.8-1.1-0.4-1.9
	c0-0.4,0.4-0.4,0.4-0.4l3.4-2.3c3.8-2.3,6.4-5.3,8.3-9l2.6-4.9c0.4-0.8,1.1-1.1,1.9-0.8C180.4,100.4,180.8,100.8,180.8,100.8z
	 M133.4,56.8l4.5,9.4c3.4,6.8,8.7,12.4,15,16.5l6.8,4.1c1.1,0.8,1.5,1.9,0.8,3c-0.4,0.4-0.4,0.8-0.8,0.8l-6.4,3.4
	c-6.4,3.8-11.7,9.4-15,16.5l-4.5,9.4c-0.8,1.1-1.9,1.5-3,1.1c-0.4-0.4-0.8-0.8-1.1-1.1l-4.5-9.4c-3.4-6.8-8.7-12.4-15-16.5l-7.1-3.8
	c-1.1-0.8-1.5-1.9-0.8-3c0.4-0.4,0.4-0.8,0.8-0.8l6.8-4.1c6.4-3.8,11.7-9.4,15-16.5l4.5-9.4c0.8-1.1,1.9-1.5,3-1.1
	C133,55.7,133.4,56,133.4,56.8z"/>
</svg>
