<svg xmlns="http://www.w3.org/2000/svg" width="18" height="18" viewBox="0 0 18 18">
    <g fill="#6A6A6A" fill-rule="evenodd">
        <path d="M6.363.394l.825 1.65a7.042 7.042 0 0 0 2.694 2.9l1.185.705a.407.407 0 0 1 0 .7l-1.185.706a7.042 7.042 0 0 0-2.694 2.9l-.825 1.65a.407.407 0 0 1-.728 0l-.825-1.65a7.042 7.042 0 0 0-2.694-2.9L.931 6.349a.407.407 0 0 1 0-.7l1.185-.705a7.042 7.042 0 0 0 2.694-2.9l.825-1.65a.407.407 0 0 1 .728 0zM14.767 8.245l.435.87a3.872 3.872 0 0 0 1.481 1.596l.622.37a.244.244 0 0 1 0 .42l-.622.37a3.872 3.872 0 0 0-1.481 1.595l-.435.87a.244.244 0 0 1-.437 0l-.436-.87a3.872 3.872 0 0 0-1.481-1.595l-.622-.37a.244.244 0 0 1 0-.42l.622-.37a3.872 3.872 0 0 0 1.481-1.595l.436-.87a.244.244 0 0 1 .437 0zM9.823 14.04l.25.5c.21.418.533.766.933 1.004l.354.211a.18.18 0 0 1 0 .31l-.354.21c-.4.239-.724.587-.932 1.004l-.25.5a.18.18 0 0 1-.323 0l-.25-.5a2.437 2.437 0 0 0-.932-1.004l-.354-.21a.18.18 0 0 1 0-.31l.354-.21c.4-.239.724-.587.932-1.004l.25-.501a.18.18 0 0 1 .322 0z"/>
    </g>
</svg>
