<?xml version="1.0" encoding="utf-8"?>
<!-- Generator: Adobe Illustrator 18.1.1, SVG Export Plug-In . SVG Version: 6.00 Build 0)  -->
<svg version="1.1" id="Слой_1" xmlns="http://www.w3.org/2000/svg" xmlns:xlink="http://www.w3.org/1999/xlink" x="0px" y="0px"
	 viewBox="43.5 0 210.6 210.6" enable-background="new 43.5 0 210.6 210.6" xml:space="preserve">
<path fill="#718090" d="M195.5,73l-39.1,48.9c0,0-0.4,0.4-0.4,0l0,0l-20.3-20.3v-0.4l0,0l49.3-39.1c3-2.3,7.5-2.3,10.2,0.8
	C197.7,65.4,198.1,70,195.5,73z M134.5,127.9c3.4,5.3,3,12.4-1.5,16.9c-9.4,9.4-38.4,3.8-31.6-2.6s4.9-10.5,11.7-17.3
	c4.5-4.5,11.7-5.3,16.9-1.5c-3.4-5.3-2.6-12.8,1.9-17.3l19.9,19.9C147.3,130.9,140.2,131.6,134.5,127.9z"/>
</svg>
