<?xml version="1.0" encoding="utf-8"?>
<!-- Generator: Adobe Illustrator 22.0.1, SVG Export Plug-In . SVG Version: 6.00 Build 0)  -->
<svg version="1.1" id="Слой_1" xmlns="http://www.w3.org/2000/svg" xmlns:xlink="http://www.w3.org/1999/xlink" x="0px" y="0px"
	 viewBox="0 0 24 24" style="enable-background:new 0 0 24 24;" xml:space="preserve">
<style type="text/css">
	.st0{fill:#FFFFFF;fill-opacity:0;}
	.st1{fill:#6A6A6A;}
</style>
<title>painting copy 2</title>
<desc>Created with Sketch.</desc>
<g id="icons" transform="translate(-248.000000, -483.000000)">
	<g id="painting-copy-2" transform="translate(244.000000, 479.000000)">
		<rect id="Mask" x="4" y="4" class="st0" width="24" height="24"/>
		<path id="Oval-2" class="st1" d="M13.8,15.6l3.2,3.2c-0.9,0.9-2.3,0.9-3.2,0C12.9,17.9,12.9,16.5,13.8,15.6z"/>
		<path id="Oval" class="st1" d="M13.9,18.7c0.9,0.9,0.9,2.3,0.1,3.1c-1.5,1.5-6.1,0.6-5-0.4s0.8-1.7,1.8-2.8
			C11.6,17.8,13,17.8,13.9,18.7z"/>
		<path id="Rectangle" class="st1" d="M23.9,10.3l-6.2,7.8c0,0-0.1,0.1-0.1,0c0,0,0,0,0,0l-3.2-3.2c0,0,0-0.1,0-0.1c0,0,0,0,0,0
			l7.8-6.2c0.5-0.4,1.2-0.3,1.6,0.1S24.3,9.8,23.9,10.3z"/>
	</g>
</g>
</svg>
