<svg xmlns="http://www.w3.org/2000/svg" width="18" height="16" viewBox="0 0 18 16">
    <g fill="none" fill-rule="evenodd">
        <path stroke="#6A6A6A" stroke-width="2" d="M7.999 14L4.63 10.819A3 3 0 0 0 2.57 10H1.56a.059.059 0 0 0-.059.059v3.928a.176.176 0 0 0 .059.013h6.44zM9.429 10.67V5.824a2 2 0 0 0-.534-1.36c-1.994-2.15-1.994-2.15-2.361-2.549a.059.059 0 0 0-.084 0L3.456 4.91c-.023.023-.023.06-.02.064L9.43 10.67z"/>
        <path fill="#6A6A6A" d="M13 0h4a1 1 0 0 1 1 1v12a3 3 0 0 1-6 0V1a1 1 0 0 1 1-1zm2 14a1 1 0 1 0 0-2 1 1 0 0 0 0 2z"/>
    </g>
</svg>
