<svg xmlns="http://www.w3.org/2000/svg" width="24" height="24" viewBox="0 0 24 24">
    <g fill="#6A6A6A" fill-rule="evenodd">
        <path d="M5 17v-2h.071c.512 0 1 .194 1.373.546L7.983 17H5zm2.817-2.908A4 4 0 0 0 5.071 13H4.059C3.474 13 3 13.474 3 14.059V18a1 1 0 0 0 1 1h7.756a.502.502 0 0 0 .344-.864l-4.283-4.044zM10.929 12.34L7.346 8.934l1.62-1.62 1.696 1.83a.998.998 0 0 1 .267.68v2.516zm1.2-4.555L9.74 5.208a1.06 1.06 0 0 0-1.497 0L5.249 8.203a1.059 1.059 0 0 0-.002 1.496l6.838 6.499a.499.499 0 0 0 .844-.363V9.824c0-.756-.286-1.485-.8-2.04zM17.5 18a1 1 0 1 1 0-2 1 1 0 0 1 0 2m2-14h-4a1 1 0 0 0-1 1v12a3 3 0 1 0 6 0V5a1 1 0 0 0-1-1"/>
    </g>
</svg>
