<?xml version="1.0" encoding="utf-8"?>
<!-- Generator: Adobe Illustrator 18.1.1, SVG Export Plug-In . SVG Version: 6.00 Build 0)  -->
<svg version="1.1" id="Слой_1" xmlns="http://www.w3.org/2000/svg" xmlns:xlink="http://www.w3.org/1999/xlink" x="0px" y="0px"
	 viewBox="43.5 0 210.6 210.6" enable-background="new 43.5 0 210.6 210.6" xml:space="preserve">
<path fill="#6B8193" d="M184.2,61.3H162c-3,0-5.6,2.6-5.6,5.6v66.9c0,9.4,7.5,16.5,16.5,16.5c9.4,0,16.5-7.5,16.5-16.5V66.9
	C189.8,63.9,187.6,61.3,184.2,61.3 M173.3,139.5c-3,0-5.6-2.6-5.6-5.6c0-3,2.6-5.6,5.6-5.6s5.6,2.6,5.6,5.6
	C178.9,136.9,176.3,139.5,173.3,139.5 M143.2,82.4c-9-9.4-13.2-14.3-13.2-14.3c-1.1-1.1-2.6-1.9-4.1-1.9c-1.5,0-3,0.8-4.1,1.9
	l-16.5,16.5c-2.3,2.3-2.3,6,0,8.3l38,36.1c0.4,0.4,1.1,0.8,1.9,0.8c1.5,0,2.6-1.1,2.6-2.6V94C147.7,89.5,146.2,85.7,143.2,82.4
	L143.2,82.4z M136.4,107.9l-19.9-18.8l9-9l9.4,10.2c1.1,1.1,1.5,2.3,1.5,3.8V107.9z M119.1,117.7l23.7,22.6c1.1,1.1,1.1,3,0,3.8
	c-0.4,0.4-1.1,0.8-1.9,0.8H98c-3,0-5.6-2.6-5.6-5.6v-21.8c0-3.4,2.6-6,6-6h5.6C109.7,111.7,115,113.6,119.1,117.7z M103.7,133.9
	v-11.3h0.4c3,0,5.6,1.1,7.5,3l8.7,8.3H103.7z"/>
</svg>
