<?xml version="1.0" encoding="utf-8"?>
<!-- Generator: Adobe Illustrator 18.1.1, SVG Export Plug-In . SVG Version: 6.00 Build 0)  -->
<svg version="1.1" id="Слой_1" xmlns="http://www.w3.org/2000/svg" xmlns:xlink="http://www.w3.org/1999/xlink" x="0px" y="0px"
	 viewBox="0 0 24 24" enable-background="new 0 0 24 24" xml:space="preserve">
<path fill="#718090" d="M12,15.5l-3,1.8c-0.2,0.1-0.5,0.1-0.7-0.2c-0.1-0.1-0.1-0.2-0.1-0.4l0.8-3.3l-2.6-2.2
	c-0.2-0.2-0.2-0.5-0.1-0.7c0.1-0.1,0.2-0.2,0.3-0.2l3.5-0.3l1.3-3.2c0.1-0.3,0.4-0.4,0.7-0.3c0.1,0.1,0.2,0.1,0.3,0.3l1.3,3.2
	l3.5,0.3c0.3,0,0.5,0.3,0.5,0.5c0,0.1-0.1,0.3-0.2,0.3l-2.6,2.2l0.8,3.3c0.1,0.3-0.1,0.5-0.4,0.6c-0.1,0-0.3,0-0.4-0.1L12,15.5z"/>
</svg>
